<svg width="28" height="28" viewBox="0 0 28 28"  xmlns="http://www.w3.org/2000/svg"><rect x="2.02734" y="1.875" width="24.1962" height="24" rx="12" /><path d="M1.52344 26.875L3.53979 17.875L10.0929 24.875L1.52344 26.875Z" /><path d="M23.9564 4.08649C21.3624 1.43784 17.7766 0 14.1144 0C6.33243 0 0.0762943 6.28108 0.152589 13.9243C0.152589 16.3459 0.839237 18.6919 1.98365 20.8108L0 28L7.40055 26.1081C9.46049 27.2432 11.7493 27.773 14.0381 27.773C21.7439 27.773 28 21.4919 28 13.8486C28 10.1405 26.5504 6.65946 23.9564 4.08649ZM14.1144 25.427C12.0545 25.427 9.99455 24.8973 8.23978 23.8378L7.78202 23.6108L3.35695 24.7459L4.50136 20.4324L4.19619 19.9784C0.839237 14.6054 2.44142 7.49189 7.9346 4.16216C13.4278 0.832432 20.5232 2.42162 23.8801 7.87027C27.2371 13.3189 25.6349 20.3568 20.1417 23.6865C18.3869 24.8216 16.2507 25.427 14.1144 25.427ZM20.8283 17.027L19.9891 16.6486C19.9891 16.6486 18.7684 16.1189 18.0054 15.7405C17.9292 15.7405 17.8529 15.6649 17.7766 15.6649C17.5477 15.6649 17.3951 15.7405 17.2425 15.8162C17.2425 15.8162 17.1662 15.8919 16.0981 17.1027C16.0218 17.2541 15.8692 17.3297 15.7166 17.3297H15.6403C15.564 17.3297 15.4114 17.2541 15.3352 17.1784L14.9537 17.027C14.1144 16.6486 13.3515 16.1946 12.7411 15.5892C12.5886 15.4378 12.3597 15.2865 12.2071 15.1351C11.673 14.6054 11.139 14 10.7575 13.3189L10.6812 13.1676C10.6049 13.0919 10.6049 13.0162 10.5286 12.8649C10.5286 12.7135 10.5286 12.5622 10.6049 12.4865C10.6049 12.4865 10.9101 12.1081 11.139 11.8811C11.2916 11.7297 11.3678 11.5027 11.5204 11.3514C11.673 11.1243 11.7493 10.8216 11.673 10.5946C11.5967 10.2162 10.6812 8.17297 10.4523 7.71892C10.2997 7.49189 10.1471 7.41622 9.91826 7.34054H9.68937C9.53679 7.34054 9.3079 7.34054 9.07902 7.34054C8.92643 7.34054 8.77384 7.41622 8.62125 7.41622L8.54496 7.49189C8.39237 7.56757 8.23978 7.71892 8.08719 7.7946C7.93461 7.94595 7.85831 8.0973 7.70572 8.24865C7.17166 8.92973 6.86649 9.76216 6.86649 10.5946C6.86649 11.2 7.01907 11.8054 7.24796 12.3351L7.32425 12.5622C8.0109 14 8.92643 15.2865 10.1471 16.4216L10.4523 16.7243C10.6812 16.9514 10.9101 17.1027 11.0627 17.3297C12.6649 18.6919 14.4959 19.6757 16.5559 20.2054C16.7847 20.2811 17.0899 20.2811 17.3188 20.3568C17.5477 20.3568 17.8529 20.3568 18.0817 20.3568C18.4632 20.3568 18.921 20.2054 19.2262 20.0541C19.455 19.9027 19.6076 19.9027 19.7602 19.7514L19.9128 19.6C20.0654 19.4486 20.218 19.373 20.3706 19.2216C20.5232 19.0703 20.6758 18.9189 20.752 18.7676C20.9046 18.4649 20.9809 18.0865 21.0572 17.7081C21.0572 17.5568 21.0572 17.3297 21.0572 17.1784C21.0572 17.1784 20.9809 17.1027 20.8283 17.027Z" /><path d="M20.829 17.0271L19.9898 16.6487C19.9898 16.6487 18.7691 16.119 18.0062 15.7406C17.9299 15.7406 17.8536 15.6649 17.7773 15.6649C17.5484 15.6649 17.3958 15.7406 17.2432 15.8163C17.2432 15.8163 17.1669 15.8919 16.0988 17.1027C16.0225 17.2541 15.8699 17.3298 15.7173 17.3298H15.641C15.5647 17.3298 15.4121 17.2541 15.3359 17.1784L14.9544 17.0271C14.1151 16.6487 13.3522 16.1946 12.7418 15.5892C12.5893 15.4379 12.3604 15.2865 12.2078 15.1352C11.6737 14.6054 11.1397 14 10.7582 13.319L10.6819 13.1676C10.6056 13.0919 10.6056 13.0163 10.5293 12.8649C10.5293 12.7135 10.5293 12.5622 10.6056 12.4865C10.6056 12.4865 10.9108 12.1081 11.1397 11.8811C11.2923 11.7298 11.3686 11.5027 11.5211 11.3514C11.6737 11.1244 11.75 10.8217 11.6737 10.5946C11.5974 10.2163 10.6819 8.17301 10.453 7.71895C10.3004 7.49193 10.1478 7.41625 9.91896 7.34058H9.69008C9.53749 7.34058 9.3086 7.34058 9.07972 7.34058C8.92713 7.34058 8.77454 7.41625 8.62196 7.41625L8.54566 7.49193C8.39307 7.5676 8.24049 7.71896 8.0879 7.79463C7.93531 7.94598 7.85901 8.09733 7.70642 8.24868C7.17236 8.92977 6.86719 9.7622 6.86719 10.5946C6.86719 11.2 7.01978 11.8054 7.24866 12.3352L7.32495 12.5622C8.0116 14 8.92713 15.2865 10.1478 16.4217L10.453 16.7244C10.6819 16.9514 10.9108 17.1027 11.0634 17.3298C12.6656 18.6919 14.4966 19.6757 16.5566 20.2054C16.7854 20.2811 17.0906 20.2811 17.3195 20.3568C17.5484 20.3568 17.8536 20.3568 18.0824 20.3568C18.4639 20.3568 18.9217 20.2054 19.2269 20.0541C19.4557 19.9027 19.6083 19.9027 19.7609 19.7514L19.9135 19.6C20.0661 19.4487 20.2187 19.373 20.3713 19.2217C20.5239 19.0703 20.6765 18.919 20.7527 18.7676C20.9053 18.4649 20.9816 18.0865 21.0579 17.7081C21.0579 17.5568 21.0579 17.3298 21.0579 17.1784C21.0579 17.1784 20.9816 17.1027 20.829 17.0271Z" fill="white"/></svg>