<svg width="14" height="14" viewBox="0 0 14 14" fill="none" xmlns="http://www.w3.org/2000/svg">
<path d="M0.278417 13.7216C-0.0928057 13.3504 -0.0928057 12.7485 0.278417 12.3773L12.3773 0.278417C12.7485 -0.0928057 13.3504 -0.0928057 13.7216 0.278417C14.0928 0.64964 14.0928 1.25151 13.7216 1.62273L1.62273 13.7216C1.25151 14.0928 0.64964 14.0928 0.278417 13.7216Z" fill="white"/>
<path d="M0.278458 0.278418C0.649681 -0.0928049 1.25155 -0.0928049 1.62277 0.278418L13.7216 12.3773C14.0928 12.7485 14.0928 13.3504 13.7216 13.7216C13.3504 14.0928 12.7485 14.0928 12.3773 13.7216L0.278458 1.62273C-0.0927645 1.25151 -0.0927646 0.649641 0.278458 0.278418Z" fill="white"/>
</svg>
