<svg width="28" height="28" viewBox="0 0 28 28" xmlns="http://www.w3.org/2000/svg"><rect width="28" height="28" rx="14" /><path fill-rule="evenodd" clip-rule="evenodd" d="M17.1136 20.9326C18.0921 21.3607 18.4591 20.4637 18.4591 20.4637L21.0482 7.45716C21.0278 6.58054 19.8454 7.11059 19.8454 7.11059L5.35064 12.7984C5.35064 12.7984 4.65751 13.043 4.71867 13.4712C4.77982 13.8993 5.33026 14.1031 5.33026 14.1031L8.97942 15.3263C8.97942 15.3263 10.0803 18.9347 10.3045 19.6278C10.5084 20.3006 10.6919 20.321 10.6919 20.321C10.8957 20.4025 11.0792 20.2598 11.0792 20.2598L13.444 18.1193L17.1136 20.9326ZM17.7471 9.76079C17.7471 9.76079 18.2568 9.45499 18.2364 9.76079C18.2364 9.76079 18.3179 9.80156 18.0529 10.087C17.8083 10.3316 12.0389 15.5098 11.2642 16.2029C11.2031 16.2437 11.1623 16.3048 11.1623 16.3864L10.9381 18.3027C10.8973 18.5066 10.6323 18.5269 10.5711 18.3435L9.61295 15.204C9.57217 15.0816 9.61295 14.9389 9.73526 14.8574L17.7471 9.76079Z" fill="white"/></svg>