<?xml version="1.0" standalone="no"?>
<!DOCTYPE svg PUBLIC "-//W3C//DTD SVG 20010904//EN"
 "http://www.w3.org/TR/2001/REC-SVG-20010904/DTD/svg10.dtd">
<svg version="1.0" xmlns="http://www.w3.org/2000/svg"
 width="131.000000pt" height="131.000000pt" viewBox="0 0 131.000000 131.000000"
 preserveAspectRatio="xMidYMid meet">
<metadata>
Created by potrace 1.14, written by Peter Selinger 2001-2017
</metadata>
<g transform="translate(0.000000,131.000000) scale(0.100000,-0.100000)"
fill="#000000" stroke="none">
<path d="M549 1006 c-2 -2 -24 -6 -49 -9 -25 -4 -55 -8 -66 -11 -12 -2 -39 -7
-60 -10 -39 -6 -65 -28 -166 -144 -36 -42 -49 -43 -55 -2 -6 39 -76 51 -97 16
-12 -19 3 -32 64 -53 l35 -12 -50 2 c-65 1 -94 -9 -100 -36 -6 -27 0 -349 8
-394 8 -50 13 -53 99 -53 71 0 80 2 85 20 5 20 14 20 458 20 447 0 453 0 458
-20 5 -19 12 -21 89 -18 l83 3 3 35 c2 19 8 40 12 46 5 5 9 89 9 186 0 210 -2
214 -98 211 l-56 -1 44 13 c61 19 77 46 40 65 -34 19 -69 4 -85 -36 l-15 -36
-20 24 c-11 12 -47 53 -80 89 l-59 67 -93 18 c-82 15 -327 30 -338 20z m319
-50 c85 -15 95 -20 126 -54 118 -131 115 -126 96 -137 -13 -8 -87 -9 -140 -1
-25 3 -65 8 -90 11 -56 6 -366 6 -400 1 -113 -19 -227 -23 -242 -8 -14 14 107
156 145 171 15 5 27 8 27 6 0 -3 11 0 24 5 14 5 58 12 98 16 40 3 74 8 76 9 9
8 199 -5 280 -19z m-642 -297 c35 -28 64 -54 64 -59 0 -4 -6 -13 -14 -19 -26
-22 -188 42 -171 68 2 5 9 20 14 35 6 14 18 26 27 26 9 0 45 -23 80 -51z m968
8 c13 -50 14 -49 -145 -93 -29 -8 -33 29 -6 51 87 73 104 85 122 83 14 -2 23
-14 29 -41z m-310 -143 c12 -31 6 -73 -11 -82 -22 -11 -423 -10 -440 1 -13 8
-18 79 -6 90 3 4 106 7 229 7 193 0 223 -2 228 -16z"/>
</g>
</svg>
